<svg width="40" height="40" viewBox="0 0 40 40" fill="none" xmlns="http://www.w3.org/2000/svg">
<path d="M34.1422 5.85781C30.3646 2.08039 25.3422 0 20 0C17.3768 0 14.8263 0.500234 12.4195 1.4868C12.1201 1.60953 11.9768 1.95172 12.0996 2.25117C12.2223 2.55063 12.5645 2.69383 12.864 2.57117C15.1291 1.64266 17.53 1.17188 20 1.17188C25.0292 1.17188 29.7573 3.13031 33.3135 6.68648C36.8697 10.2427 38.8281 14.9708 38.8281 20C38.8281 25.0292 36.8697 29.7573 33.3135 33.3135C29.7573 36.8697 25.0292 38.8281 20 38.8281C14.9708 38.8281 10.2427 36.8697 6.68648 33.3135C3.13031 29.7573 1.17188 25.0292 1.17188 20C1.17188 16.6056 2.08492 13.2787 3.81219 10.3789C5.49008 7.56203 7.88445 5.21945 10.7364 3.60453C11.018 3.44508 11.117 3.0875 10.9576 2.80594C10.7982 2.52438 10.4407 2.42547 10.159 2.58477C7.13016 4.29992 4.58734 6.78766 2.80547 9.77922C0.970078 12.8603 0 16.3946 0 20C0 25.3422 2.08039 30.3646 5.85781 34.1422C9.63539 37.9196 14.6578 40 20 40C25.3422 40 30.3646 37.9196 34.1422 34.1422C37.9196 30.3646 40 25.3422 40 20C40 14.6578 37.9196 9.63539 34.1422 5.85781V5.85781Z" fill="white"/>
<path d="M14.0822 36.4644C15.9772 37.1457 17.9683 37.4911 20 37.4911C24.6721 37.4911 29.0644 35.6717 32.3681 32.3681C35.6717 29.0644 37.4911 24.6721 37.4911 20C37.4911 15.328 35.6717 10.9357 32.3681 7.632C29.0644 4.32841 24.6721 2.50903 20 2.50903C15.328 2.50903 10.9357 4.32841 7.632 7.632C4.32841 10.9357 2.50903 15.328 2.50903 20C2.50903 26.4194 6.01638 32.3125 11.6624 35.3796C11.9468 35.534 12.3025 35.4287 12.4569 35.1444C12.6114 34.86 12.5061 34.5043 12.2218 34.3499C6.95356 31.488 3.68091 25.9895 3.68091 20C3.68091 11.0017 11.0017 3.68091 20 3.68091C28.9984 3.68091 36.3192 11.0017 36.3192 20C36.3192 28.9984 28.9984 36.3192 20 36.3192C18.1038 36.3192 16.2461 35.997 14.4786 35.3617C14.1741 35.2522 13.8385 35.4103 13.729 35.7149C13.6196 36.0193 13.7777 36.355 14.0822 36.4644V36.4644Z" fill="white"/>
<path d="M23.4362 19.1802C24.11 19.1835 24.7441 18.9223 25.2217 18.4448C25.7048 17.9618 25.9691 17.3176 25.9659 16.6307C25.9594 15.2242 24.8189 14.0744 23.4235 14.0677L17.0416 14.037C16.8852 14.0362 16.7351 14.098 16.6245 14.2085C16.514 14.3191 16.4521 14.4692 16.4529 14.6256L16.4712 18.5663C16.4725 18.8362 16.656 19.0629 16.9051 19.1296C16.9527 19.1424 17.0027 19.1492 17.0543 19.1495L23.4362 19.1802ZM17.6274 15.2117L23.4178 15.2396C24.1734 15.2431 24.7904 15.8697 24.794 16.6361C24.7957 17.0079 24.6534 17.3559 24.3931 17.6161C24.1383 17.8708 23.8005 18.0101 23.4419 18.0083L17.6403 17.9804L17.6274 15.2117Z" fill="white"/>
<path d="M16.9366 25.9148C16.9842 25.9275 17.0342 25.9344 17.0858 25.9347L24.4096 25.9699C25.1562 25.9735 25.859 25.6839 26.3885 25.1545C26.925 24.618 27.2185 23.9022 27.215 23.1389C27.2077 21.5766 25.9424 20.2994 24.3944 20.292L17.0706 20.2567C16.9142 20.256 16.764 20.3177 16.6535 20.4283C16.5429 20.5388 16.4811 20.689 16.4818 20.8453L16.5028 25.3515C16.504 25.6213 16.6875 25.848 16.9366 25.9148V25.9148ZM24.3886 21.4638C25.2966 21.4682 26.0387 22.2221 26.043 23.1444C26.0451 23.5926 25.8735 24.0122 25.5598 24.3258C25.2531 24.6324 24.8467 24.8001 24.4151 24.7981L17.6718 24.7656L17.6564 21.4314L24.3886 21.4638Z" fill="white"/>
<path d="M11.9376 25.2301C11.6104 25.5573 11.4313 25.9965 11.4335 26.4667C11.4379 27.4151 12.194 28.1902 13.1188 28.1947L15.6518 28.2069L15.6546 28.8063C15.6584 29.6071 16.1979 30.2844 16.9225 30.4785C17.0561 30.5144 17.196 30.5337 17.34 30.5344C17.7826 30.5366 18.2004 30.3638 18.5162 30.048C18.8434 29.7208 19.0225 29.2816 19.0203 28.8115L19.0175 28.2231L20.2654 28.2291L20.2683 28.8286C20.2727 29.777 21.0287 30.5524 21.9537 30.5567C22.3963 30.5588 22.814 30.386 23.1299 30.0702C23.4571 29.743 23.6362 29.3039 23.634 28.8337L23.6312 28.2454L24.4203 28.2492C25.736 28.2555 26.9777 27.742 27.9165 26.8034C28.8853 25.8347 29.4153 24.5371 29.4088 23.1496C29.4014 21.5659 28.6948 20.1039 27.4925 19.1323C27.9348 18.3834 28.1639 17.533 28.1599 16.6412C28.1477 14.0264 26.0952 11.8803 23.5547 11.7914L23.551 10.9806C23.5466 10.0322 22.7907 9.25697 21.8656 9.25255C21.4229 9.25041 21.0052 9.42317 20.6894 9.73899C20.3621 10.0662 20.1831 10.5054 20.1853 10.9755L20.189 11.7731L18.9411 11.7671L18.9373 10.9584C18.9329 10.0099 18.1767 9.23469 17.2519 9.23033C16.8092 9.22819 16.3915 9.40097 16.0757 9.71677C15.7484 10.044 15.5694 10.4831 15.5716 10.9533L15.5753 11.7509L13.0534 11.7387C12.6107 11.7365 12.1929 11.9092 11.8772 12.225C11.5498 12.5523 11.3708 12.9914 11.373 13.4616C11.3774 14.41 12.1332 15.1852 13.0583 15.1897L14.2617 15.1955L14.3062 24.7495L13.1138 24.7437C12.6712 24.7416 12.2534 24.9143 11.9376 25.2301V25.2301ZM13.1082 25.9156L14.892 25.9242C15.0484 25.9249 15.1986 25.8631 15.3092 25.7526C15.4197 25.6421 15.4815 25.4919 15.4808 25.3356L15.4309 14.6097C15.4295 14.2882 15.1691 14.0282 14.8478 14.0264L13.0639 14.0179C12.7794 14.0168 12.5463 13.7646 12.5448 13.4563C12.5442 13.3012 12.6012 13.1583 12.7056 13.0539C12.7987 12.9609 12.9201 12.9101 13.0476 12.9107L16.161 12.9257C16.3174 12.9264 16.4676 12.8647 16.5781 12.7542C16.6886 12.6436 16.7505 12.4935 16.7498 12.337L16.7433 10.9479C16.7426 10.7929 16.7997 10.6499 16.9042 10.5455C16.9971 10.4525 17.1186 10.4017 17.2462 10.4023C17.5309 10.4033 17.7638 10.6556 17.7653 10.9639L17.7718 12.353C17.7732 12.6744 18.0332 12.9345 18.3549 12.9362L20.7748 12.9479C20.9311 12.9486 21.0813 12.8868 21.1918 12.7763C21.3024 12.6657 21.3642 12.5156 21.3635 12.3592L21.357 10.9701C21.3563 10.815 21.4134 10.6721 21.5178 10.5677C21.6108 10.4746 21.7323 10.4238 21.8598 10.4244C22.1445 10.4255 22.3775 10.6777 22.379 10.986L22.3854 12.3751C22.387 12.6966 22.6473 12.9568 22.9686 12.9584L23.4073 12.9605C25.3721 12.9697 26.9784 14.6236 26.9878 16.6466C26.9917 17.4809 26.7278 18.2664 26.2246 18.918C26.1237 19.0486 26.0826 19.2156 26.1114 19.378C26.1401 19.5405 26.2359 19.6833 26.3755 19.7714C27.5345 20.5036 28.2304 21.7685 28.2368 23.1549C28.2419 24.2274 27.8338 25.2288 27.0878 25.9747C26.3719 26.6905 25.4265 27.082 24.4258 27.0772L23.0453 27.0705C22.8889 27.0698 22.7387 27.1316 22.6282 27.2421C22.5176 27.3527 22.4558 27.5028 22.4565 27.6592L22.462 28.839C22.4627 28.9941 22.4057 29.137 22.3012 29.2414C22.2082 29.3344 22.0868 29.3853 21.9592 29.3846C21.6742 29.3832 21.4415 29.1313 21.4401 28.823L21.4346 27.6432C21.4331 27.3217 21.1729 27.0617 20.8514 27.06L18.4316 27.0483C18.2752 27.0476 18.1251 27.1094 18.0145 27.2199C17.904 27.3305 17.8421 27.4806 17.8429 27.637L17.8483 28.8169C17.849 28.9719 17.7919 29.1148 17.6875 29.2193C17.5946 29.3123 17.473 29.3631 17.3455 29.3625C17.0605 29.3613 16.8278 29.1092 16.8264 28.8009L16.8208 27.621C16.8196 27.3511 16.636 27.1245 16.387 27.0578C16.3394 27.045 16.2894 27.0382 16.2378 27.0378L13.1243 27.0228C12.8392 27.0213 12.6067 26.7695 12.6053 26.4612C12.6046 26.3062 12.6617 26.1632 12.7661 26.0588C12.8592 25.9658 12.9806 25.9149 13.1082 25.9156V25.9156Z" fill="white"/>
</svg>
