<svg width="96" height="96" viewBox="0 0 96 96" fill="none" xmlns="http://www.w3.org/2000/svg">
<path d="M81.9412 14.0588C72.8751 4.99294 60.8212 0 48 0C41.7043 0 35.5832 1.20056 29.8069 3.56831C29.0882 3.86288 28.7443 4.68413 29.0391 5.40281C29.3336 6.1215 30.1549 6.46519 30.8736 6.17081C36.3097 3.94237 42.072 2.8125 48 2.8125C60.0701 2.8125 71.4176 7.51275 79.9524 16.0476C88.4872 24.5824 93.1875 35.9299 93.1875 48C93.1875 60.0701 88.4872 71.4176 79.9524 79.9524C71.4176 88.4872 60.0701 93.1875 48 93.1875C35.9299 93.1875 24.5824 88.4872 16.0476 79.9524C7.51275 71.4176 2.8125 60.0701 2.8125 48C2.8125 39.8535 5.00381 31.8688 9.14925 24.9094C13.1762 18.1489 18.9227 12.5267 25.7674 8.65088C26.4431 8.26819 26.6809 7.41 26.2982 6.73425C25.9157 6.0585 25.0577 5.82112 24.3816 6.20344C17.1124 10.3198 11.0096 16.2904 6.73312 23.4701C2.32819 30.8648 0 39.3471 0 48C0 60.8212 4.99294 72.8751 14.0588 81.9412C23.1249 91.0071 35.1788 96 48 96C60.8212 96 72.8751 91.0071 81.9412 81.9412C91.0071 72.8751 96 60.8212 96 48C96 35.1788 91.0071 23.1249 81.9412 14.0588V14.0588Z" fill="white"/>
<path d="M33.7972 87.5145C38.3452 89.1495 43.1236 89.9784 47.9999 89.9784C59.2128 89.9784 69.7544 85.6119 77.6832 77.6833C85.6119 69.7545 89.9784 59.2129 89.9784 48C89.9784 36.7871 85.6119 26.2455 77.6832 18.3167C69.7544 10.3881 59.2128 6.02156 47.9999 6.02156C36.787 6.02156 26.2454 10.3881 18.3166 18.3167C10.388 26.2455 6.02148 36.7871 6.02148 48C6.02148 63.4065 14.4391 77.55 27.9895 84.9109C28.672 85.2816 29.5257 85.0288 29.8964 84.3465C30.2671 83.664 30.0144 82.8103 29.332 82.4396C16.6884 75.5711 8.83398 62.3747 8.83398 48C8.83398 26.4039 26.4039 8.83406 47.9999 8.83406C69.596 8.83406 87.1659 26.4039 87.1659 48C87.1659 69.5961 69.596 87.1659 47.9999 87.1659C43.4489 87.1659 38.9905 86.3927 34.7485 84.8679C34.0177 84.6052 33.2122 84.9846 32.9495 85.7156C32.6868 86.4463 33.0663 87.2518 33.7972 87.5145V87.5145Z" fill="white"/>
<path d="M56.247 46.0325C57.8641 46.0403 59.386 45.4135 60.5322 44.2675C61.6917 43.1083 62.3259 41.5621 62.3182 39.9135C62.3026 36.538 59.5654 33.7786 56.2166 33.7624L40.9 33.6887C40.5247 33.6869 40.1643 33.8351 39.8989 34.1004C39.6337 34.3657 39.4853 34.7261 39.487 35.1014L39.531 44.5591C39.5342 45.2068 39.9746 45.7509 40.5723 45.911C40.6865 45.9416 40.8066 45.9581 40.9304 45.9588L56.247 46.0325ZM42.3058 36.5079L56.203 36.5749C58.0163 36.5833 59.4972 38.0873 59.5057 39.9265C59.5099 40.8188 59.1682 41.6541 58.5436 42.2786C57.9322 42.8898 57.1214 43.2243 56.2607 43.22L42.337 43.153L42.3058 36.5079Z" fill="white"/>
<path d="M40.6478 62.1955C40.7621 62.2261 40.8821 62.2426 41.006 62.2433L58.583 62.3279C60.3749 62.3366 62.0615 61.6414 63.3323 60.3708C64.6199 59.0833 65.3243 57.3655 65.3159 55.5335C65.2983 51.784 62.2616 48.7187 58.5464 48.7008L40.9694 48.6162C40.594 48.6144 40.2336 48.7627 39.9684 49.028C39.703 49.2933 39.5547 49.6536 39.5564 50.0289L39.6066 60.8436C39.6095 61.4912 40.05 62.0353 40.6478 62.1955V62.1955ZM58.5326 51.5133C60.7118 51.5238 62.4929 53.3331 62.5031 55.5466C62.5082 56.6224 62.0963 57.6293 61.3435 58.3821C60.6075 59.1179 59.6319 59.5204 58.5963 59.5155L42.4123 59.4375L42.3752 51.4354L58.5326 51.5133Z" fill="white"/>
<path d="M28.6504 60.5521C27.865 61.3375 27.4352 62.3915 27.4403 63.5199C27.451 65.7962 29.2656 67.6564 31.4851 67.6672L37.5643 67.6964L37.5711 69.1351C37.5801 71.0571 38.8749 72.6825 40.6139 73.1484C40.9347 73.2344 41.2704 73.2809 41.6159 73.2826C42.6783 73.2877 43.6809 72.8731 44.4388 72.1151C45.2242 71.3297 45.654 70.2758 45.6486 69.1475L45.642 67.7355L48.637 67.7499L48.6438 69.1885C48.6544 71.4646 50.469 73.3256 52.6888 73.3359C53.7512 73.341 54.7537 72.9264 55.5117 72.1684C56.2971 71.3831 56.7268 70.3293 56.7215 69.2008L56.715 67.7888L58.6086 67.7979C61.7665 67.8131 64.7465 66.5807 66.9995 64.328C69.3247 62.0032 70.5966 58.889 70.5811 55.5589C70.5633 51.758 68.8676 48.2493 65.982 45.9176C67.0435 44.1201 67.5935 42.0792 67.5837 39.9388C67.5544 33.6634 62.6284 28.5126 56.5313 28.2993L56.5224 26.3534C56.5119 24.0773 54.6976 22.2167 52.4774 22.206C51.4151 22.2009 50.4124 22.6155 49.6545 23.3735C48.8691 24.1589 48.4394 25.2129 48.4447 26.3411L48.4536 28.2554L45.4586 28.2409L45.4495 26.3001C45.439 24.0238 43.6241 22.1632 41.4045 22.1527C40.3421 22.1476 39.3397 22.5623 38.5816 23.3202C37.7962 24.1055 37.3665 25.1594 37.3718 26.2878L37.3807 28.202L31.3281 28.1727C30.2657 28.1676 29.2631 28.582 28.5052 29.34C27.7196 30.1253 27.2899 31.1793 27.2952 32.3078C27.3057 34.5839 29.1196 36.4444 31.3399 36.4553L34.2281 36.469L34.3348 59.3986L31.4732 59.3848C30.4109 59.3797 29.4082 59.7941 28.6504 60.5521V60.5521ZM31.4596 62.1974L35.7409 62.2179C36.1162 62.2197 36.4766 62.0715 36.742 61.8062C37.0072 61.5409 37.1556 61.1805 37.1538 60.8052L37.0342 35.0631C37.0307 34.2916 36.4059 33.6676 35.6347 33.6634L31.3533 33.6429C30.6706 33.6402 30.111 33.0349 30.1076 32.295C30.106 31.9229 30.2429 31.5799 30.4935 31.3292C30.7168 31.106 31.0082 30.9842 31.3143 30.9857L38.7864 31.0216C39.1617 31.0234 39.5221 30.8752 39.7875 30.6099C40.0527 30.3446 40.2011 29.9842 40.1994 29.6088L40.1839 26.2749C40.1823 25.9028 40.3192 25.5598 40.57 25.3092C40.793 25.086 41.0847 24.964 41.3908 24.9655C42.0742 24.9679 42.6331 25.5734 42.6367 26.3133L42.6523 29.6472C42.6558 30.4185 43.2798 31.0427 44.0518 31.0469L49.8594 31.0748C50.2347 31.0765 50.5951 30.9283 50.8603 30.663C51.1257 30.3977 51.2741 30.0374 51.2724 29.6621L51.2569 26.3281C51.2551 25.9559 51.3922 25.6129 51.6428 25.3623C51.8659 25.1391 52.1575 25.0171 52.4636 25.0186C53.1468 25.0211 53.7059 25.6265 53.7095 26.3664L53.7251 29.7003C53.7287 30.4719 54.3536 31.0962 55.1246 31.1L56.1775 31.1051C60.893 31.1273 64.7483 35.0965 64.7707 39.9518C64.7801 41.9541 64.1467 43.8393 62.939 45.403C62.697 45.7165 62.5983 46.1173 62.6674 46.5072C62.7362 46.8972 62.9662 47.2399 63.3011 47.4513C66.0828 49.2086 67.7529 52.2444 67.7684 55.5718C67.7804 58.1457 66.801 60.549 65.0107 62.3391C63.2926 64.0571 61.0235 64.9967 58.6219 64.9853L55.3086 64.9692C54.9333 64.9675 54.5729 65.1157 54.3077 65.381C54.0423 65.6463 53.8939 66.0066 53.8956 66.3819L53.9089 69.2135C53.9105 69.5857 53.7736 69.9287 53.523 70.1793C53.2997 70.4025 53.0083 70.5245 52.7022 70.5231C52.018 70.5197 51.4597 69.9151 51.4563 69.1752L51.443 66.3436C51.4395 65.572 50.8149 64.9479 50.0435 64.9438L44.2359 64.916C43.8605 64.9142 43.5001 65.0624 43.2349 65.3277C42.9695 65.593 42.8212 65.9533 42.8229 66.3286L42.8359 69.1604C42.8377 69.5326 42.7006 69.8755 42.45 70.1262C42.2269 70.3494 41.9353 70.4714 41.6292 70.4699C40.9451 70.4672 40.3867 69.8619 40.3833 69.122L40.37 66.2904C40.3669 65.6426 39.9265 65.0987 39.3288 64.9386C39.2145 64.9079 39.0945 64.8915 38.9707 64.8907L31.4984 64.8547C30.8142 64.851 30.2561 64.2468 30.2526 63.5069C30.251 63.1347 30.388 62.7916 30.6386 62.5411C30.862 62.3178 31.1535 62.1957 31.4596 62.1974V62.1974Z" fill="white"/>
</svg>
