<svg width="166" height="166" viewBox="0 0 166 166" fill="none" xmlns="http://www.w3.org/2000/svg">
<path d="M2.76667 22.1333C3.50043 22.1333 4.20414 21.8418 4.723 21.323C5.24185 20.8041 5.53333 20.1004 5.53333 19.3667V5.53333H19.3667C20.1004 5.53333 20.8041 5.24185 21.323 4.723C21.8418 4.20414 22.1333 3.50043 22.1333 2.76667C22.1333 2.0329 21.8418 1.32919 21.323 0.810338C20.8041 0.291487 20.1004 0 19.3667 0H2.76667C2.0329 0 1.32919 0.291487 0.810338 0.810338C0.291487 1.32919 0 2.0329 0 2.76667V19.3667C0 20.1004 0.291487 20.8041 0.810338 21.323C1.32919 21.8418 2.0329 22.1333 2.76667 22.1333Z" fill="#C72A20"/>
<path d="M163.233 0H146.633C145.9 0 145.196 0.291487 144.677 0.810338C144.158 1.32919 143.867 2.0329 143.867 2.76667C143.867 3.50043 144.158 4.20414 144.677 4.723C145.196 5.24185 145.9 5.53333 146.633 5.53333H160.467V19.3667C160.467 20.1004 160.758 20.8041 161.277 21.323C161.796 21.8418 162.5 22.1333 163.233 22.1333C163.967 22.1333 164.671 21.8418 165.19 21.323C165.709 20.8041 166 20.1004 166 19.3667V2.76667C166 2.0329 165.709 1.32919 165.19 0.810338C164.671 0.291487 163.967 0 163.233 0V0Z" fill="#C72A20"/>
<path d="M19.3667 160.467H5.53333V146.633C5.53333 145.9 5.24185 145.196 4.723 144.677C4.20414 144.158 3.50043 143.867 2.76667 143.867C2.0329 143.867 1.32919 144.158 0.810338 144.677C0.291487 145.196 0 145.9 0 146.633V163.233C0 163.967 0.291487 164.671 0.810338 165.19C1.32919 165.709 2.0329 166 2.76667 166H19.3667C20.1004 166 20.8041 165.709 21.323 165.19C21.8418 164.671 22.1333 163.967 22.1333 163.233C22.1333 162.5 21.8418 161.796 21.323 161.277C20.8041 160.758 20.1004 160.467 19.3667 160.467Z" fill="#C72A20"/>
<path d="M163.233 143.867C162.5 143.867 161.796 144.158 161.277 144.677C160.758 145.196 160.467 145.9 160.467 146.633V160.467H146.633C145.9 160.467 145.196 160.758 144.677 161.277C144.158 161.796 143.867 162.5 143.867 163.233C143.867 163.967 144.158 164.671 144.677 165.19C145.196 165.709 145.9 166 146.633 166H163.233C163.967 166 164.671 165.709 165.19 165.19C165.709 164.671 166 163.967 166 163.233V146.633C166 145.9 165.709 145.196 165.19 144.677C164.671 144.158 163.967 143.867 163.233 143.867Z" fill="#C72A20"/>
<path d="M49.7997 47.0333V13.8333C49.7997 13.0996 49.5083 12.3959 48.9894 11.877C48.4706 11.3582 47.7668 11.0667 47.0331 11.0667H13.8331C13.0993 11.0667 12.3956 11.3582 11.8767 11.877C11.3579 12.3959 11.0664 13.0996 11.0664 13.8333V47.0333C11.0664 47.7671 11.3579 48.4708 11.8767 48.9897C12.3956 49.5085 13.0993 49.8 13.8331 49.8H47.0331C47.7668 49.8 48.4706 49.5085 48.9894 48.9897C49.5083 48.4708 49.7997 47.7671 49.7997 47.0333ZM44.2664 44.2667H16.5997V16.6H44.2664V44.2667Z" fill="#C72A20"/>
<path d="M24.9 38.7333H35.9666C36.7004 38.7333 37.4041 38.4418 37.923 37.923C38.4418 37.4041 38.7333 36.7004 38.7333 35.9667V24.9C38.7333 24.1662 38.4418 23.4625 37.923 22.9437C37.4041 22.4248 36.7004 22.1333 35.9666 22.1333H24.9C24.1662 22.1333 23.4625 22.4248 22.9436 22.9437C22.4248 23.4625 22.1333 24.1662 22.1333 24.9V35.9667C22.1333 36.7004 22.4248 37.4041 22.9436 37.923C23.4625 38.4418 24.1662 38.7333 24.9 38.7333ZM27.6666 27.6667H33.2V33.2H27.6666V27.6667Z" fill="#C72A20"/>
<path d="M154.933 13.8333C154.933 13.0996 154.642 12.3959 154.123 11.877C153.604 11.3582 152.9 11.0667 152.166 11.0667H118.966C118.233 11.0667 117.529 11.3582 117.01 11.877C116.491 12.3959 116.2 13.0996 116.2 13.8333V47.0333C116.2 47.7671 116.491 48.4708 117.01 48.9897C117.529 49.5085 118.233 49.8 118.966 49.8H152.166C152.9 49.8 153.604 49.5085 154.123 48.9897C154.642 48.4708 154.933 47.7671 154.933 47.0333V13.8333ZM149.4 44.2667H121.733V16.6H149.4V44.2667Z" fill="#C72A20"/>
<path d="M130.033 38.7333H141.1C141.834 38.7333 142.537 38.4418 143.056 37.923C143.575 37.4041 143.867 36.7004 143.867 35.9667V24.9C143.867 24.1662 143.575 23.4625 143.056 22.9437C142.537 22.4248 141.834 22.1333 141.1 22.1333H130.033C129.3 22.1333 128.596 22.4248 128.077 22.9437C127.558 23.4625 127.267 24.1662 127.267 24.9V35.9667C127.267 36.7004 127.558 37.4041 128.077 37.923C128.596 38.4418 129.3 38.7333 130.033 38.7333ZM132.8 27.6667H138.333V33.2H132.8V27.6667Z" fill="#C72A20"/>
<path d="M47.0331 116.2H13.8331C13.0993 116.2 12.3956 116.491 11.8767 117.01C11.3579 117.529 11.0664 118.233 11.0664 118.967V152.167C11.0664 152.9 11.3579 153.604 11.8767 154.123C12.3956 154.642 13.0993 154.933 13.8331 154.933H47.0331C47.7668 154.933 48.4706 154.642 48.9894 154.123C49.5083 153.604 49.7997 152.9 49.7997 152.167V118.967C49.7997 118.233 49.5083 117.529 48.9894 117.01C48.4706 116.491 47.7668 116.2 47.0331 116.2ZM44.2664 149.4H16.5997V121.733H44.2664V149.4Z" fill="#C72A20"/>
<path d="M24.9 143.867H35.9666C36.7004 143.867 37.4041 143.575 37.923 143.056C38.4418 142.537 38.7333 141.834 38.7333 141.1V130.033C38.7333 129.3 38.4418 128.596 37.923 128.077C37.4041 127.558 36.7004 127.267 35.9666 127.267H24.9C24.1662 127.267 23.4625 127.558 22.9436 128.077C22.4248 128.596 22.1333 129.3 22.1333 130.033V141.1C22.1333 141.834 22.4248 142.537 22.9436 143.056C23.4625 143.575 24.1662 143.867 24.9 143.867ZM27.6666 132.8H33.2V138.333H27.6666V132.8Z" fill="#C72A20"/>
<path d="M69.1663 24.9C69.9001 24.9 70.6038 24.6085 71.1227 24.0897C71.6415 23.5708 71.933 22.8671 71.933 22.1333V13.8333C71.933 13.0996 71.6415 12.3959 71.1227 11.877C70.6038 11.3582 69.9001 11.0667 69.1663 11.0667H58.0997C57.3659 11.0667 56.6622 11.3582 56.1433 11.877C55.6245 12.3959 55.333 13.0996 55.333 13.8333C55.333 14.5671 55.6245 15.2708 56.1433 15.7897C56.6622 16.3085 57.3659 16.6 58.0997 16.6H66.3997V22.1333C66.3997 22.8671 66.6912 23.5708 67.21 24.0897C67.7289 24.6085 68.4326 24.9 69.1663 24.9Z" fill="#C72A20"/>
<path d="M66.3997 47.0333H80.233C80.9668 47.0333 81.6705 46.7418 82.1893 46.223C82.7082 45.7041 82.9997 45.0004 82.9997 44.2667C82.9997 43.5329 82.7082 42.8292 82.1893 42.3103C81.6705 41.7915 80.9668 41.5 80.233 41.5H69.1663V33.2C69.1663 32.4662 68.8749 31.7625 68.356 31.2437C67.8372 30.7248 67.1334 30.4333 66.3997 30.4333H60.8663V24.9C60.8663 24.1662 60.5749 23.4625 60.056 22.9437C59.5372 22.4248 58.8334 22.1333 58.0997 22.1333C57.3659 22.1333 56.6622 22.4248 56.1433 22.9437C55.6245 23.4625 55.333 24.1662 55.333 24.9V33.2C55.333 33.9338 55.6245 34.6375 56.1433 35.1563C56.6622 35.6752 57.3659 35.9667 58.0997 35.9667H63.633V44.2667C63.633 45.0004 63.9245 45.7041 64.4433 46.223C64.9622 46.7418 65.6659 47.0333 66.3997 47.0333Z" fill="#C72A20"/>
<path d="M85.7663 11.0667H80.233C79.4992 11.0667 78.7955 11.3582 78.2766 11.877C77.7578 12.3959 77.4663 13.0996 77.4663 13.8333C77.4663 14.5671 77.7578 15.2708 78.2766 15.7897C78.7955 16.3085 79.4992 16.6 80.233 16.6H85.7663C86.5001 16.6 87.2038 16.3085 87.7226 15.7897C88.2415 15.2708 88.533 14.5671 88.533 13.8333C88.533 13.0996 88.2415 12.3959 87.7226 11.877C87.2038 11.3582 86.5001 11.0667 85.7663 11.0667Z" fill="#C72A20"/>
<path d="M105.133 11.0667H96.8333C96.0996 11.0667 95.3959 11.3582 94.877 11.877C94.3582 12.3959 94.0667 13.0996 94.0667 13.8333V22.1333H85.7667C85.0329 22.1333 84.3292 22.4248 83.8103 22.9437C83.2915 23.4625 83 24.1662 83 24.9C83 25.6338 83.2915 26.3375 83.8103 26.8563C84.3292 27.3752 85.0329 27.6667 85.7667 27.6667H96.8333C97.5671 27.6667 98.2708 27.3752 98.7897 26.8563C99.3085 26.3375 99.6 25.6338 99.6 24.9V16.6H105.133C105.867 16.6 106.571 16.3085 107.09 15.7897C107.609 15.2708 107.9 14.5671 107.9 13.8333C107.9 13.0996 107.609 12.3959 107.09 11.877C106.571 11.3582 105.867 11.0667 105.133 11.0667Z" fill="#C72A20"/>
<path d="M91.3004 33.2C90.5666 33.2 89.8629 33.4915 89.344 34.0103C88.8252 34.5292 88.5337 35.2329 88.5337 35.9666V44.2666C88.5337 45.0004 88.8252 45.7041 89.344 46.223C89.8629 46.7418 90.5666 47.0333 91.3004 47.0333C92.0341 47.0333 92.7378 46.7418 93.2567 46.223C93.7755 45.7041 94.067 45.0004 94.067 44.2666V35.9666C94.067 35.2329 93.7755 34.5292 93.2567 34.0103C92.7378 33.4915 92.0341 33.2 91.3004 33.2Z" fill="#C72A20"/>
<path d="M105.134 24.9V33.2H102.367C101.633 33.2 100.93 33.4915 100.411 34.0103C99.8921 34.5292 99.6006 35.2329 99.6006 35.9667C99.6006 36.7004 99.8921 37.4041 100.411 37.923C100.93 38.4418 101.633 38.7333 102.367 38.7333H107.901C108.634 38.7333 109.338 38.4418 109.857 37.923C110.376 37.4041 110.667 36.7004 110.667 35.9667V24.9C110.667 24.1662 110.376 23.4625 109.857 22.9437C109.338 22.4248 108.634 22.1333 107.901 22.1333C107.167 22.1333 106.463 22.4248 105.944 22.9437C105.425 23.4625 105.134 24.1662 105.134 24.9Z" fill="#C72A20"/>
<path d="M74.6997 33.2C74.6997 33.9338 74.9912 34.6375 75.51 35.1563C76.0289 35.6752 76.7326 35.9667 77.4664 35.9667H80.233C80.9668 35.9667 81.6705 35.6752 82.1894 35.1563C82.7082 34.6375 82.9997 33.9338 82.9997 33.2C82.9997 32.4662 82.7082 31.7625 82.1894 31.2437C81.6705 30.7248 80.9668 30.4333 80.233 30.4333H77.4664C76.7326 30.4333 76.0289 30.7248 75.51 31.2437C74.9912 31.7625 74.6997 32.4662 74.6997 33.2Z" fill="#C72A20"/>
<path d="M146.634 132.8C147.367 132.8 148.071 132.509 148.59 131.99C149.109 131.471 149.4 130.767 149.4 130.033C149.4 129.3 149.109 128.596 148.59 128.077C148.071 127.558 147.367 127.267 146.634 127.267H135.567V121.733H141.1C141.834 121.733 142.538 121.442 143.057 120.923C143.576 120.404 143.867 119.7 143.867 118.967V102.367C143.867 101.633 143.576 100.929 143.057 100.41C142.538 99.8915 141.834 99.6 141.1 99.6C140.367 99.6 139.663 99.8915 139.144 100.41C138.625 100.929 138.334 101.633 138.334 102.367V116.2H113.434V94.0667C113.434 93.3329 113.142 92.6292 112.623 92.1103C112.104 91.5915 111.401 91.3 110.667 91.3H102.367V88.5333C102.367 87.7996 102.076 87.0959 101.557 86.577C101.038 86.0582 100.334 85.7667 99.6003 85.7667H85.767V71.9333C85.767 71.1996 85.4755 70.4959 84.9567 69.977C84.4378 69.4582 83.7341 69.1667 83.0003 69.1667C82.2666 69.1667 81.5628 69.4582 81.044 69.977C80.5251 70.4959 80.2337 71.1996 80.2337 71.9333V74.7H74.7003V60.8667C74.7003 60.1329 74.4088 59.4292 73.89 58.9103C73.3711 58.3915 72.6674 58.1 71.9337 58.1C71.1999 58.1 70.4962 58.3915 69.9773 58.9103C69.4585 59.4292 69.167 60.1329 69.167 60.8667V77.4667C69.167 78.2004 69.4585 78.9042 69.9773 79.423C70.4962 79.9419 71.1999 80.2333 71.9337 80.2333H80.2337V88.5333C80.2337 89.2671 80.5251 89.9708 81.044 90.4897C81.5628 91.0085 82.2666 91.3 83.0003 91.3H96.8337V94.0667C96.8337 94.8004 97.1251 95.5041 97.644 96.023C98.1628 96.5419 98.8666 96.8333 99.6003 96.8333H107.9V102.367H102.367C101.633 102.367 100.93 102.658 100.411 103.177C99.8918 103.696 99.6003 104.4 99.6003 105.133C99.6003 105.867 99.8918 106.571 100.411 107.09C100.93 107.609 101.633 107.9 102.367 107.9H107.9V149.4C107.9 150.134 108.192 150.837 108.711 151.356C109.23 151.875 109.933 152.167 110.667 152.167C111.401 152.167 112.104 151.875 112.623 151.356C113.142 150.837 113.434 150.134 113.434 149.4V143.867H118.967V149.4C118.967 150.134 119.258 150.837 119.777 151.356C120.296 151.875 121 152.167 121.734 152.167C122.467 152.167 123.171 151.875 123.69 151.356C124.209 150.837 124.5 150.134 124.5 149.4V143.867H130.034V152.167C130.034 152.9 130.325 153.604 130.844 154.123C131.363 154.642 132.067 154.933 132.8 154.933C133.534 154.933 134.238 154.642 134.757 154.123C135.276 153.604 135.567 152.9 135.567 152.167V132.8H146.634ZM113.434 121.733H130.034V138.333H113.434V121.733Z" fill="#C72A20"/>
<path d="M69.1663 149.4V141.1C69.1663 140.366 68.8749 139.663 68.356 139.144C67.8372 138.625 67.1334 138.333 66.3997 138.333H63.633V127.267H80.233C80.9668 127.267 81.6705 126.975 82.1893 126.456C82.7082 125.937 82.9997 125.234 82.9997 124.5V113.433C82.9997 112.7 82.7082 111.996 82.1893 111.477C81.6705 110.958 80.9668 110.667 80.233 110.667H77.4663V102.367C77.4663 101.633 77.1749 100.929 76.656 100.41C76.1372 99.8915 75.4334 99.6 74.6997 99.6H69.1663V88.5333C69.1663 87.7996 68.8749 87.0958 68.356 86.577C67.8372 86.0581 67.1334 85.7667 66.3997 85.7667C65.6659 85.7667 64.9622 86.0581 64.4433 86.577C63.9245 87.0958 63.633 87.7996 63.633 88.5333V99.6H58.0997C57.3659 99.6 56.6622 99.8915 56.1433 100.41C55.6245 100.929 55.333 101.633 55.333 102.367V113.433C55.333 114.167 55.6245 114.871 56.1433 115.39C56.6622 115.909 57.3659 116.2 58.0997 116.2C58.8334 116.2 59.5372 115.909 60.056 115.39C60.5749 114.871 60.8663 114.167 60.8663 113.433V105.133H71.933V110.667H69.1663C68.4326 110.667 67.7289 110.958 67.21 111.477C66.6912 111.996 66.3997 112.7 66.3997 113.433V121.733H60.8663C60.1326 121.733 59.4289 122.025 58.91 122.544C58.3912 123.063 58.0997 123.766 58.0997 124.5V138.333C57.3659 138.333 56.6622 138.625 56.1433 139.144C55.6245 139.663 55.333 140.366 55.333 141.1C55.333 141.834 55.6245 142.537 56.1433 143.056C56.6622 143.575 57.3659 143.867 58.0997 143.867H63.633V149.4H58.0997C57.3659 149.4 56.6622 149.691 56.1433 150.21C55.6245 150.729 55.333 151.433 55.333 152.167C55.333 152.9 55.6245 153.604 56.1433 154.123C56.6622 154.642 57.3659 154.933 58.0997 154.933H69.1663C69.9001 154.933 70.6038 154.642 71.1227 154.123C71.6415 153.604 71.933 152.9 71.933 152.167C71.933 151.433 71.6415 150.729 71.1227 150.21C70.6038 149.691 69.9001 149.4 69.1663 149.4ZM71.933 116.2H77.4663V121.733H71.933V116.2Z" fill="#C72A20"/>
<path d="M99.5996 132.8H88.533C87.7992 132.8 87.0955 133.092 86.5766 133.61C86.0578 134.129 85.7663 134.833 85.7663 135.567V149.4H80.233C79.4992 149.4 78.7955 149.692 78.2766 150.21C77.7578 150.729 77.4663 151.433 77.4663 152.167C77.4663 152.9 77.7578 153.604 78.2766 154.123C78.7955 154.642 79.4992 154.933 80.233 154.933H94.0663C94.8001 154.933 95.5038 154.642 96.0226 154.123C96.5415 153.604 96.833 152.9 96.833 152.167C96.833 151.433 96.5415 150.729 96.0226 150.21C95.5038 149.692 94.8001 149.4 94.0663 149.4H91.2996V138.333H96.833V141.1C96.833 141.834 97.1245 142.537 97.6433 143.056C98.1622 143.575 98.8659 143.867 99.5996 143.867C100.333 143.867 101.037 143.575 101.556 143.056C102.075 142.537 102.366 141.834 102.366 141.1V135.567C102.366 134.833 102.075 134.129 101.556 133.61C101.037 133.092 100.333 132.8 99.5996 132.8Z" fill="#C72A20"/>
<path d="M80.233 141.1V135.567C80.233 134.833 79.9416 134.129 79.4227 133.61C78.9039 133.092 78.2001 132.8 77.4664 132.8C76.7326 132.8 76.0289 133.092 75.51 133.61C74.9912 134.129 74.6997 134.833 74.6997 135.567V141.1C74.6997 141.834 74.9912 142.537 75.51 143.056C76.0289 143.575 76.7326 143.867 77.4664 143.867C78.2001 143.867 78.9039 143.575 79.4227 143.056C79.9416 142.537 80.233 141.834 80.233 141.1Z" fill="#C72A20"/>
<path d="M99.6004 116.2H91.3004C90.5666 116.2 89.8629 116.491 89.344 117.01C88.8252 117.529 88.5337 118.233 88.5337 118.967C88.5337 119.7 88.8252 120.404 89.344 120.923C89.8629 121.442 90.5666 121.733 91.3004 121.733H99.6004C100.334 121.733 101.038 121.442 101.557 120.923C102.076 120.404 102.367 119.7 102.367 118.967C102.367 118.233 102.076 117.529 101.557 117.01C101.038 116.491 100.334 116.2 99.6004 116.2Z" fill="#C72A20"/>
<path d="M91.3001 110.667C92.0338 110.667 92.7375 110.375 93.2564 109.856C93.7752 109.337 94.0667 108.634 94.0667 107.9V99.6C94.0667 98.8662 93.7752 98.1625 93.2564 97.6436C92.7375 97.1248 92.0338 96.8333 91.3001 96.8333H83.0001C82.2663 96.8333 81.5626 97.1248 81.0437 97.6436C80.5249 98.1625 80.2334 98.8662 80.2334 99.6C80.2334 100.334 80.5249 101.037 81.0437 101.556C81.5626 102.075 82.2663 102.367 83.0001 102.367H88.5334V107.9C88.5334 108.634 88.8249 109.337 89.3437 109.856C89.8626 110.375 90.5663 110.667 91.3001 110.667Z" fill="#C72A20"/>
<path d="M154.933 91.3C154.933 90.5662 154.641 89.8625 154.122 89.3437C153.604 88.8248 152.9 88.5333 152.166 88.5333C151.432 88.5333 150.729 88.8248 150.21 89.3437C149.691 89.8625 149.399 90.5662 149.399 91.3V99.6C149.399 100.334 149.691 101.037 150.21 101.556C150.729 102.075 151.432 102.367 152.166 102.367C152.9 102.367 153.604 102.075 154.122 101.556C154.641 101.037 154.933 100.334 154.933 99.6V91.3Z" fill="#C72A20"/>
<path d="M152.166 107.9C151.432 107.9 150.729 108.192 150.21 108.71C149.691 109.229 149.399 109.933 149.399 110.667V121.733C149.399 122.467 149.691 123.171 150.21 123.69C150.729 124.209 151.432 124.5 152.166 124.5C152.9 124.5 153.604 124.209 154.122 123.69C154.641 123.171 154.933 122.467 154.933 121.733V110.667C154.933 109.933 154.641 109.229 154.122 108.71C153.604 108.192 152.9 107.9 152.166 107.9Z" fill="#C72A20"/>
<path d="M121.733 110.667H130.033C130.767 110.667 131.47 110.375 131.989 109.856C132.508 109.337 132.8 108.634 132.8 107.9C132.8 107.166 132.508 106.463 131.989 105.944C131.47 105.425 130.767 105.133 130.033 105.133H124.5V99.6C124.5 98.8662 124.208 98.1625 123.689 97.6436C123.17 97.1248 122.467 96.8333 121.733 96.8333C120.999 96.8333 120.295 97.1248 119.777 97.6436C119.258 98.1625 118.966 98.8662 118.966 99.6V107.9C118.966 108.634 119.258 109.337 119.777 109.856C120.295 110.375 120.999 110.667 121.733 110.667Z" fill="#C72A20"/>
<path d="M35.9664 69.1667C35.9664 68.4329 35.6749 67.7292 35.1561 67.2103C34.6372 66.6915 33.9335 66.4 33.1997 66.4H27.6664V58.1C27.6664 57.3662 27.3749 56.6625 26.8561 56.1437C26.3372 55.6248 25.6335 55.3333 24.8997 55.3333H13.8331C13.0993 55.3333 12.3956 55.6248 11.8767 56.1437C11.3579 56.6625 11.0664 57.3662 11.0664 58.1C11.0664 58.8338 11.3579 59.5375 11.8767 60.0563C12.3956 60.5752 13.0993 60.8667 13.8331 60.8667H22.1331V69.1667C22.1331 69.9004 22.4246 70.6042 22.9434 71.123C23.4623 71.6419 24.166 71.9333 24.8997 71.9333H33.1997C33.9335 71.9333 34.6372 71.6419 35.1561 71.123C35.6749 70.6042 35.9664 69.9004 35.9664 69.1667Z" fill="#C72A20"/>
<path d="M41.5001 60.8667H55.3334C56.0672 60.8667 56.7709 60.5752 57.2897 60.0563C57.8086 59.5375 58.1001 58.8338 58.1001 58.1V44.2667C58.1001 43.5329 57.8086 42.8292 57.2897 42.3103C56.7709 41.7915 56.0672 41.5 55.3334 41.5C54.5996 41.5 53.8959 41.7915 53.3771 42.3103C52.8582 42.8292 52.5667 43.5329 52.5667 44.2667V55.3333H41.5001C40.7663 55.3333 40.0626 55.6248 39.5437 56.1437C39.0249 56.6625 38.7334 57.3662 38.7334 58.1C38.7334 58.8338 39.0249 59.5375 39.5437 60.0563C40.0626 60.5752 40.7663 60.8667 41.5001 60.8667Z" fill="#C72A20"/>
<path d="M11.0664 74.7V85.7667C11.0664 86.5005 11.3579 87.2042 11.8767 87.723C12.3956 88.2419 13.0993 88.5334 13.8331 88.5334C14.5668 88.5334 15.2706 88.2419 15.7894 87.723C16.3083 87.2042 16.5997 86.5005 16.5997 85.7667V74.7C16.5997 73.9663 16.3083 73.2625 15.7894 72.7437C15.2706 72.2248 14.5668 71.9333 13.8331 71.9333C13.0993 71.9333 12.3956 72.2248 11.8767 72.7437C11.3579 73.2625 11.0664 73.9663 11.0664 74.7Z" fill="#C72A20"/>
<path d="M24.9 77.4667C24.1662 77.4667 23.4625 77.7582 22.9436 78.277C22.4248 78.7959 22.1333 79.4996 22.1333 80.2333C22.1333 80.9671 22.4248 81.6708 22.9436 82.1897C23.4625 82.7085 24.1662 83 24.9 83H30.4333C31.1671 83 31.8708 82.7085 32.3896 82.1897C32.9085 81.6708 33.2 80.9671 33.2 80.2333C33.2 79.4996 32.9085 78.7959 32.3896 78.277C31.8708 77.7582 31.1671 77.4667 30.4333 77.4667H24.9Z" fill="#C72A20"/>
<path d="M58.0997 88.5334V83H60.8664C61.6002 83 62.3039 82.7085 62.8227 82.1897C63.3416 81.6708 63.6331 80.9671 63.6331 80.2334C63.6331 79.4996 63.3416 78.7959 62.8227 78.277C62.3039 77.7582 61.6002 77.4667 60.8664 77.4667H58.0997V69.1667C58.0997 68.4329 57.8083 67.7292 57.2894 67.2104C56.7706 66.6915 56.0668 66.4 55.3331 66.4H44.2664C43.5326 66.4 42.8289 66.6915 42.3101 67.2104C41.7912 67.7292 41.4997 68.4329 41.4997 69.1667C41.4997 69.9005 41.7912 70.6042 42.3101 71.123C42.8289 71.6419 43.5326 71.9334 44.2664 71.9334H52.5664V77.4667H41.4997C40.766 77.4667 40.0623 77.7582 39.5434 78.277C39.0246 78.7959 38.7331 79.4996 38.7331 80.2334V88.5334H35.9664C35.2326 88.5334 34.5289 88.8248 34.0101 89.3437C33.4912 89.8625 33.1997 90.5663 33.1997 91.3V105.133H27.6664V96.8334C27.6664 96.0996 27.3749 95.3959 26.8561 94.877C26.3372 94.3582 25.6335 94.0667 24.8997 94.0667H13.8331C13.0993 94.0667 12.3956 94.3582 11.8767 94.877C11.3579 95.3959 11.0664 96.0996 11.0664 96.8334C11.0664 97.5671 11.3579 98.2708 11.8767 98.7897C12.3956 99.3085 13.0993 99.6 13.8331 99.6H22.1331V105.133H13.8331C13.0993 105.133 12.3956 105.425 11.8767 105.944C11.3579 106.463 11.0664 107.166 11.0664 107.9C11.0664 108.634 11.3579 109.338 11.8767 109.856C12.3956 110.375 13.0993 110.667 13.8331 110.667H47.0331C47.7668 110.667 48.4706 110.375 48.9894 109.856C49.5083 109.338 49.7997 108.634 49.7997 107.9C49.7997 107.166 49.5083 106.463 48.9894 105.944C48.4706 105.425 47.7668 105.133 47.0331 105.133H38.7331V94.0667H44.2664V96.8334C44.2664 97.5671 44.5579 98.2708 45.0767 98.7897C45.5956 99.3085 46.2993 99.6 47.0331 99.6C47.7668 99.6 48.4706 99.3085 48.9894 98.7897C49.5083 98.2708 49.7997 97.5671 49.7997 96.8334V91.3C49.7997 90.5663 49.5083 89.8625 48.9894 89.3437C48.4706 88.8248 47.7668 88.5334 47.0331 88.5334H44.2664V83H52.5664V88.5334C52.5664 89.2671 52.8579 89.9708 53.3767 90.4897C53.8956 91.0085 54.5993 91.3 55.3331 91.3C56.0668 91.3 56.7706 91.0085 57.2894 90.4897C57.8083 89.9708 58.0997 89.2671 58.0997 88.5334Z" fill="#C72A20"/>
<path d="M85.7667 58.1H91.3C92.0338 58.1 92.7375 57.8085 93.2563 57.2897C93.7752 56.7708 94.0667 56.0671 94.0667 55.3333C94.0667 54.5996 93.7752 53.8959 93.2563 53.377C92.7375 52.8582 92.0338 52.5667 91.3 52.5667H85.7667C85.0329 52.5667 84.3292 52.8582 83.8103 53.377C83.2915 53.8959 83 54.5996 83 55.3333C83 56.0671 83.2915 56.7708 83.8103 57.2897C84.3292 57.8085 85.0329 58.1 85.7667 58.1Z" fill="#C72A20"/>
<path d="M96.8331 69.1667H102.366C103.1 69.1667 103.804 68.8752 104.323 68.3563C104.842 67.8375 105.133 67.1338 105.133 66.4C105.133 65.6662 104.842 64.9625 104.323 64.4437C103.804 63.9248 103.1 63.6333 102.366 63.6333H96.8331C96.0993 63.6333 95.3956 63.9248 94.8767 64.4437C94.3579 64.9625 94.0664 65.6662 94.0664 66.4C94.0664 67.1338 94.3579 67.8375 94.8767 68.3563C95.3956 68.8752 96.0993 69.1667 96.8331 69.1667Z" fill="#C72A20"/>
<path d="M116.201 60.8667V71.9333C116.201 72.6671 116.492 73.3708 117.011 73.8897C117.53 74.4085 118.233 74.7 118.967 74.7H124.501C125.234 74.7 125.938 74.4085 126.457 73.8897C126.976 73.3708 127.267 72.6671 127.267 71.9333C127.267 71.1996 126.976 70.4959 126.457 69.977C125.938 69.4582 125.234 69.1667 124.501 69.1667H121.734V60.8667H132.801C133.534 60.8667 134.238 60.5752 134.757 60.0563C135.276 59.5375 135.567 58.8338 135.567 58.1C135.567 57.3662 135.276 56.6625 134.757 56.1437C134.238 55.6248 133.534 55.3333 132.801 55.3333H113.434V52.5667C113.434 51.8329 113.142 51.1292 112.624 50.6103C112.105 50.0915 111.401 49.8 110.667 49.8H105.134V44.2667C105.134 43.5329 104.842 42.8292 104.324 42.3103C103.805 41.7915 103.101 41.5 102.367 41.5C101.633 41.5 100.93 41.7915 100.411 42.3103C99.8921 42.8292 99.6006 43.5329 99.6006 44.2667V52.5667C99.6006 53.3004 99.8921 54.0041 100.411 54.523C100.93 55.0419 101.633 55.3333 102.367 55.3333H107.901V58.1C107.901 58.8338 108.192 59.5375 108.711 60.0563C109.23 60.5752 109.933 60.8667 110.667 60.8667H116.201Z" fill="#C72A20"/>
<path d="M94.067 80.2333H107.9C108.634 80.2333 109.338 79.9418 109.857 79.423C110.375 78.9041 110.667 78.2004 110.667 77.4666C110.667 76.7329 110.375 76.0292 109.857 75.5103C109.338 74.9915 108.634 74.7 107.9 74.7H94.067C93.3332 74.7 92.6295 74.9915 92.1106 75.5103C91.5918 76.0292 91.3003 76.7329 91.3003 77.4666C91.3003 78.2004 91.5918 78.9041 92.1106 79.423C92.6295 79.9418 93.3332 80.2333 94.067 80.2333Z" fill="#C72A20"/>
<path d="M154.933 58.1C154.933 57.3662 154.642 56.6625 154.123 56.1437C153.604 55.6248 152.9 55.3333 152.166 55.3333H143.866C143.133 55.3333 142.429 55.6248 141.91 56.1437C141.391 56.6625 141.1 57.3662 141.1 58.1C141.1 58.8338 141.391 59.5375 141.91 60.0563C142.429 60.5752 143.133 60.8667 143.866 60.8667H149.4V66.4H141.1C140.366 66.4 139.662 66.6915 139.143 67.2103C138.625 67.7292 138.333 68.4329 138.333 69.1667C138.333 69.9004 138.625 70.6042 139.143 71.123C139.662 71.6419 140.366 71.9333 141.1 71.9333H149.4V77.4667H138.333C137.599 77.4667 136.896 77.7582 136.377 78.277C135.858 78.7959 135.566 79.4996 135.566 80.2333C135.566 80.9671 135.858 81.6708 136.377 82.1897C136.896 82.7085 137.599 83 138.333 83H152.166C152.9 83 153.604 82.7085 154.123 82.1897C154.642 81.6708 154.933 80.9671 154.933 80.2333V58.1Z" fill="#C72A20"/>
<path d="M116.2 85.7667H118.967V88.5333C118.967 89.2671 119.258 89.9708 119.777 90.4897C120.296 91.0085 121 91.3 121.734 91.3C122.467 91.3 123.171 91.0085 123.69 90.4897C124.209 89.9708 124.5 89.2671 124.5 88.5333V83C124.5 82.2662 124.209 81.5625 123.69 81.0437C123.171 80.5248 122.467 80.2333 121.734 80.2333H116.2C115.466 80.2333 114.763 80.5248 114.244 81.0437C113.725 81.5625 113.434 82.2662 113.434 83C113.434 83.7338 113.725 84.4375 114.244 84.9563C114.763 85.4752 115.466 85.7667 116.2 85.7667Z" fill="#C72A20"/>
<path d="M135.567 96.8333V94.0667H141.1C141.834 94.0667 142.538 93.7752 143.057 93.2563C143.576 92.7375 143.867 92.0338 143.867 91.3C143.867 90.5662 143.576 89.8625 143.057 89.3437C142.538 88.8248 141.834 88.5333 141.1 88.5333H132.8C132.067 88.5333 131.363 88.8248 130.844 89.3437C130.325 89.8625 130.034 90.5662 130.034 91.3V96.8333C130.034 97.5671 130.325 98.2708 130.844 98.7897C131.363 99.3085 132.067 99.6 132.8 99.6C133.534 99.6 134.238 99.3085 134.757 98.7897C135.276 98.2708 135.567 97.5671 135.567 96.8333Z" fill="#C72A20"/>
<path d="M146.634 152.167V143.867H152.167C152.901 143.867 153.605 143.575 154.124 143.056C154.642 142.537 154.934 141.834 154.934 141.1C154.934 140.366 154.642 139.663 154.124 139.144C153.605 138.625 152.901 138.333 152.167 138.333H143.867C143.133 138.333 142.43 138.625 141.911 139.144C141.392 139.663 141.101 140.366 141.101 141.1V152.167C141.101 152.9 141.392 153.604 141.911 154.123C142.43 154.642 143.133 154.933 143.867 154.933C144.601 154.933 145.305 154.642 145.824 154.123C146.342 153.604 146.634 152.9 146.634 152.167Z" fill="#C72A20"/>
<path d="M121.733 132.8C123.261 132.8 124.5 131.561 124.5 130.033C124.5 128.505 123.261 127.267 121.733 127.267C120.205 127.267 118.966 128.505 118.966 130.033C118.966 131.561 120.205 132.8 121.733 132.8Z" fill="#C72A20"/>
</svg>
