<svg width="40" height="40" viewBox="0 0 40 40" fill="none" xmlns="http://www.w3.org/2000/svg">
<path d="M34.1422 5.85781C30.3647 2.08039 25.3422 0 20 0C14.6578 0 9.63531 2.08039 5.85781 5.85781C2.08039 9.63539 0 14.6578 0 20C0 25.3422 2.08039 30.3646 5.85781 34.1422C9.63531 37.9196 14.6578 40 20 40C27.9654 40 35.1669 35.2799 38.3466 27.9751C38.4757 27.6784 38.3398 27.3331 38.0431 27.204C37.7465 27.0748 37.4013 27.2107 37.272 27.5074C34.2786 34.3845 27.4988 38.8281 20 38.8281C14.9708 38.8281 10.2427 36.8697 6.68648 33.3135C3.13031 29.7573 1.17188 25.0292 1.17188 20C1.17188 14.9708 3.13031 10.2427 6.68648 6.68648C10.2427 3.13031 14.9708 1.17188 20 1.17188C25.0292 1.17188 29.7573 3.13031 33.3135 6.68648C36.8697 10.2427 38.8281 14.9708 38.8281 20C38.8281 21.6835 38.6059 23.3527 38.1678 24.9611C38.0827 25.2734 38.267 25.5954 38.5791 25.6805C38.8912 25.7654 39.2134 25.5814 39.2985 25.2691C39.764 23.5603 40 21.7875 40 20C40 14.6578 37.9196 9.63539 34.1422 5.85781V5.85781Z" fill="white"/>
<path d="M3.70935 15.4301C3.39435 15.3539 3.0781 15.547 3.00177 15.8613C2.67481 17.2086 2.50903 18.601 2.50903 20C2.50903 24.672 4.32841 29.0644 7.632 32.3681C10.9356 35.6717 15.328 37.491 20 37.491C24.6721 37.491 29.0644 35.6717 32.3681 32.3681C35.6717 29.0644 37.4911 24.672 37.4911 20C37.4911 15.328 35.6717 10.9356 32.3681 7.63197C29.0644 4.32838 24.6721 2.509 20 2.509C16.475 2.509 13.0771 3.55299 10.1736 5.52814C7.33997 7.45588 5.14966 10.1422 3.83981 13.2967C3.71575 13.5956 3.85739 13.9385 4.1563 14.0626C4.45505 14.1865 4.79794 14.045 4.92216 13.7462C6.14435 10.8029 8.18825 8.29619 10.8329 6.49713C13.5411 4.65471 16.711 3.68088 20 3.68088C28.9985 3.68088 36.3192 11.0017 36.3192 20C36.3192 28.9984 28.9985 36.3192 20 36.3192C11.0016 36.3192 3.68091 28.9984 3.68091 20C3.68091 18.6941 3.83552 17.3946 4.14052 16.1377C4.21692 15.8232 4.0238 15.5064 3.70935 15.4301V15.4301Z" fill="white"/>
<path d="M14.9801 17.8362C15.2942 17.7586 15.486 17.441 15.4084 17.1269C15.3307 16.8127 15.0129 16.6211 14.699 16.6986C12.6028 17.2166 11.4949 18.0101 11.4949 18.9936C11.4949 19.9119 12.4179 20.6426 14.2384 21.1659C15.2964 21.4699 16.5882 21.6804 17.9929 21.7831V27.7832C17.9929 28.9176 18.9117 29.8405 20.041 29.8405C21.1703 29.8405 22.089 28.9176 22.089 27.7832V21.7766C23.4617 21.6717 24.724 21.464 25.7613 21.1659C27.5817 20.6427 28.5048 19.9119 28.5048 18.9936C28.5048 18.0291 27.436 17.2454 25.4142 16.7272C25.1007 16.6469 24.7814 16.8359 24.701 17.1493C24.6207 17.4627 24.8098 17.782 25.1232 17.8623C26.9578 18.3326 27.3328 18.8743 27.3328 18.9936C27.3328 19.1572 26.8696 19.628 25.4375 20.0395C24.4956 20.3102 23.346 20.5009 22.0889 20.6013V14.2747H25.7269C26.8562 14.2747 27.775 13.3518 27.775 12.2173C27.775 11.0829 26.8562 10.16 25.7269 10.16H20.0625C20.046 10.1594 20.0322 10.1594 20.0182 10.16H14.355C13.2257 10.16 12.3069 11.0829 12.3069 12.2173C12.3069 13.3518 13.2257 14.2747 14.355 14.2747H17.9928V20.6078C16.7035 20.5093 15.5244 20.3161 14.562 20.0395C13.13 19.628 12.6667 19.1572 12.6667 18.9936C12.6668 18.8698 13.0594 18.3108 14.9801 17.8362V17.8362ZM20.9171 27.7831C20.9171 28.2714 20.5241 28.6686 20.041 28.6686C19.5578 28.6686 19.1648 28.2714 19.1648 27.7831V21.8426C19.4406 21.8508 19.7191 21.8551 19.9998 21.8551C20.3085 21.8551 20.6144 21.8495 20.9171 21.8398V27.7831H20.9171ZM18.5789 13.1028H14.3551C13.872 13.1028 13.4789 12.7056 13.4789 12.2173C13.4789 11.7291 13.872 11.3319 14.3551 11.3319H20.0403H20.0411C20.0444 11.3319 20.0467 11.3319 20.0496 11.3319H25.7271C26.2103 11.3319 26.6033 11.7291 26.6033 12.2174C26.6033 12.7057 26.2103 13.1029 25.7271 13.1029H21.5032C21.1796 13.1029 20.9173 13.3652 20.9173 13.6888V20.6674C20.6151 20.6776 20.3093 20.6834 20 20.6834C19.7189 20.6834 19.4404 20.6787 19.165 20.6703V13.6889C19.1649 13.3651 18.9025 13.1028 18.5789 13.1028V13.1028Z" fill="white"/>
</svg>
