<svg width="96" height="96" viewBox="0 0 96 96" fill="none" xmlns="http://www.w3.org/2000/svg">
<path d="M81.9412 14.0588C72.8752 4.99294 60.8212 0 48 0C35.1788 0 23.1248 4.99294 14.0588 14.0588C4.99294 23.1249 0 35.1788 0 48C0 60.8212 4.99294 72.8751 14.0588 81.9412C23.1248 91.0071 35.1788 96 48 96C67.1169 96 84.4005 84.6718 92.0317 67.1402C92.3417 66.4281 92.0156 65.5995 91.3035 65.2896C90.5916 64.9796 89.763 65.3057 89.4529 66.0178C82.2686 82.5227 65.9972 93.1875 48 93.1875C35.9299 93.1875 24.5824 88.4872 16.0476 79.9524C7.51275 71.4176 2.8125 60.0701 2.8125 48C2.8125 35.9299 7.51275 24.5824 16.0476 16.0476C24.5824 7.51275 35.9299 2.8125 48 2.8125C60.0701 2.8125 71.4176 7.51275 79.9524 16.0476C88.4872 24.5824 93.1875 35.9299 93.1875 48C93.1875 52.0404 92.6543 56.0466 91.6028 59.9066C91.3986 60.6561 91.8407 61.4289 92.5899 61.6331C93.3388 61.8369 94.1121 61.3954 94.3164 60.6459C95.4336 56.5448 96 52.29 96 48C96 35.1788 91.0071 23.1249 81.9412 14.0588V14.0588Z" fill="white"/>
<path d="M8.90223 37.0322C8.14623 36.8494 7.38723 37.3127 7.20405 38.0672C6.41936 41.3006 6.02148 44.6424 6.02148 48C6.02148 59.2129 10.388 69.7545 18.3166 77.6833C26.2452 85.6119 36.787 89.9784 47.9999 89.9784C59.2128 89.9784 69.7544 85.6119 77.6832 77.6833C85.6119 69.7545 89.9784 59.2129 89.9784 48C89.9784 36.7871 85.6119 26.2455 77.6832 18.3167C69.7544 10.3881 59.2128 6.02156 47.9999 6.02156C39.5397 6.02156 31.3848 8.52712 24.4165 13.2675C17.6157 17.8941 12.359 24.3412 9.21536 31.9121C8.91761 32.6293 9.25755 33.4522 9.97492 33.7502C10.6919 34.0476 11.5149 33.708 11.813 32.9908C14.7462 25.9269 19.6516 19.9108 25.9987 15.5931C32.4984 11.1712 40.1062 8.83406 47.9999 8.83406C69.5962 8.83406 87.1659 26.4039 87.1659 48C87.1659 69.5961 69.5962 87.1659 47.9999 87.1659C26.4037 87.1659 8.83398 69.5961 8.83398 48C8.83398 44.8657 9.20505 41.7471 9.93705 38.7304C10.1204 37.9757 9.65692 37.2154 8.90223 37.0322V37.0322Z" fill="white"/>
<path d="M35.9525 42.807C36.7064 42.6206 37.1667 41.8584 36.9803 41.1045C36.794 40.3506 36.0312 39.8906 35.2778 40.0766C30.247 41.3197 27.5879 43.2244 27.5879 45.5846C27.5879 47.7885 29.8032 49.5424 34.1723 50.7981C36.7116 51.5278 39.812 52.0329 43.1832 52.2795V66.6797C43.1832 69.4024 45.3882 71.6173 48.0985 71.6173C50.8088 71.6173 53.0138 69.4024 53.0138 66.6797V52.2637C56.3082 52.0121 59.3378 51.5136 61.8273 50.7981C66.1964 49.5426 68.4117 47.7885 68.4117 45.5846C68.4117 43.2697 65.8467 41.3889 60.9942 40.1452C60.2418 39.9527 59.4756 40.4061 59.2827 41.1583C59.09 41.9106 59.5437 42.6769 60.2958 42.8696C64.699 43.9982 65.599 45.2983 65.599 45.5846C65.599 45.9772 64.4871 47.1073 61.0503 48.0949C58.7896 48.7444 56.0307 49.2022 53.0136 49.4432V34.2592H61.7448C64.4551 34.2592 66.6601 32.0443 66.6601 29.3216C66.6601 26.5989 64.4551 24.384 61.7448 24.384H48.1501C48.1107 24.3825 48.0775 24.3827 48.044 24.384H34.4521C31.7418 24.384 29.5368 26.5989 29.5368 29.3216C29.5368 32.0443 31.7418 34.2592 34.4521 34.2592H43.183V49.4587C40.0887 49.2223 37.2588 48.7586 34.949 48.0949C31.5121 47.1071 30.4002 45.9772 30.4002 45.5846C30.4006 45.2876 31.3428 43.9459 35.9525 42.807V42.807ZM50.2013 66.6795C50.2013 67.8514 49.258 68.8046 48.0985 68.8046C46.939 68.8046 45.9957 67.8514 45.9957 66.6795V52.4224C46.6576 52.4419 47.326 52.4522 47.9997 52.4522C48.7407 52.4522 49.4748 52.4389 50.2011 52.4154V66.6795H50.2013ZM44.5896 31.4467H34.4525C33.293 31.4467 32.3496 30.4935 32.3496 29.3216C32.3496 28.1497 33.293 27.1965 34.4525 27.1965H48.097H48.0989C48.1068 27.1965 48.1122 27.1967 48.1191 27.1967H61.7453C62.9048 27.1967 63.8481 28.1499 63.8481 29.3218C63.8481 30.4937 62.9048 31.4469 61.7453 31.4469H51.608C50.8311 31.4469 50.2017 32.0766 50.2017 32.8532V49.6018C49.4765 49.6262 48.7426 49.6401 48.0003 49.6401C47.3255 49.6401 46.6572 49.629 45.9963 49.6087V32.8534C45.9959 32.0764 45.3663 31.4467 44.5896 31.4467V31.4467Z" fill="white"/>
</svg>
