<svg width="96" height="86" viewBox="0 0 96 86" fill="none" xmlns="http://www.w3.org/2000/svg">
<path d="M91.7815 35.6235H90.376V31.404V16.4041C90.376 11.4931 86.3805 7.49765 81.4697 7.49765H42.8487L16.7932 0.0531655C16.7857 0.051103 16.778 0.0499777 16.7705 0.0479152C16.7628 0.0458527 16.7555 0.0428529 16.7478 0.0409779C16.7321 0.0370404 16.7165 0.0351655 16.701 0.0317905C16.6768 0.026728 16.6526 0.021478 16.6284 0.0175405C16.6065 0.013978 16.5849 0.011728 16.563 0.00910296C16.5375 0.00610297 16.5122 0.00347795 16.4868 0.00197796C16.4662 0.00085296 16.4458 0.000665314 16.4252 0.000290315C16.3989 -8.46843e-05 16.3728 -0.000272135 16.3468 0.000852863C16.3275 0.00160286 16.3082 0.00347774 16.289 0.00497773C16.2622 0.00722773 16.2354 0.00966549 16.209 0.013603C16.191 0.016228 16.1732 0.0196029 16.1553 0.0227904C16.128 0.0276654 16.101 0.0329152 16.0742 0.0394777C16.0575 0.0436027 16.0412 0.0482902 16.0247 0.0529777C15.9973 0.0608527 15.9703 0.0689153 15.9433 0.0782902C15.9281 0.0837277 15.9131 0.0895404 15.8979 0.0955404C15.8707 0.10604 15.8437 0.117103 15.8173 0.12929C15.8032 0.135853 15.7895 0.142978 15.7757 0.149915C15.7492 0.163228 15.7232 0.176728 15.6977 0.191915C15.6843 0.199603 15.6716 0.207853 15.6585 0.216103C15.6333 0.231853 15.6086 0.247978 15.5846 0.265415C15.572 0.274415 15.5598 0.284165 15.5475 0.293727C15.5244 0.31154 15.5015 0.329727 15.4796 0.34904C15.4672 0.359915 15.4554 0.371352 15.4434 0.382602C15.4228 0.402102 15.4023 0.421602 15.3828 0.442227C15.3707 0.455165 15.3592 0.468664 15.3474 0.482164C15.3296 0.502602 15.312 0.523227 15.2953 0.544789C15.2833 0.560352 15.272 0.576289 15.2606 0.592227C15.2458 0.613039 15.2312 0.634039 15.2177 0.655602C15.206 0.673977 15.1953 0.693102 15.1847 0.712039C15.1728 0.732852 15.161 0.753851 15.1503 0.775414C15.1398 0.796414 15.1305 0.817977 15.1209 0.839539C15.1115 0.860726 15.1023 0.881914 15.0941 0.903664C15.0855 0.926539 15.078 0.949976 15.0703 0.973601C15.0654 0.988789 15.0594 1.00304 15.0549 1.01841C15.0527 1.0261 15.0517 1.0336 15.0497 1.0411C15.0476 1.04879 15.0446 1.0561 15.0427 1.06379L13.4347 7.49728H8.90717C4.00612 7.49728 0.017625 11.4766 0.0015 16.3741C0.0013125 16.3842 0 16.3938 0 16.4037V65.1536C0 65.9299 0.631874 66.5598 1.40625 66.5598C2.1825 66.5598 2.81249 65.9299 2.81249 65.1536V22.8899C4.40699 24.3891 6.55086 25.3105 8.90717 25.3105H81.4697C81.4714 25.3105 81.4729 25.3103 81.4746 25.3103C84.8323 25.3129 87.5635 28.0455 87.5635 31.4042V41.2487H72.0925C72.0915 41.2487 72.0908 41.2489 72.0899 41.2489C72.0492 41.2489 72.0087 41.2513 71.9684 41.2549C71.9236 41.2588 71.8793 41.2652 71.8358 41.2733C71.8292 41.2744 71.8229 41.275 71.8163 41.2763C71.7795 41.2836 71.7435 41.2933 71.7077 41.3035C71.6999 41.3057 71.6918 41.3072 71.6841 41.3096C71.6522 41.3194 71.6213 41.331 71.5904 41.3428C71.5786 41.3473 71.5666 41.3511 71.5547 41.356C71.5289 41.3666 71.5039 41.3792 71.479 41.3914C71.4625 41.3993 71.4458 41.4066 71.4297 41.415C71.4102 41.4253 71.3918 41.4371 71.3731 41.4484C71.3522 41.4608 71.3311 41.4728 71.3108 41.4863C71.2971 41.4953 71.2845 41.5056 71.2714 41.5151C71.2474 41.5324 71.2232 41.5495 71.2004 41.5684C71.1904 41.5766 71.1812 41.5858 71.1717 41.5943C71.1471 41.6156 71.1226 41.6368 71.0993 41.6601C71.0856 41.6738 71.0732 41.6888 71.0603 41.703C71.0421 41.7227 71.0234 41.742 71.0061 41.763C70.9771 41.7985 70.9499 41.8352 70.9244 41.8733C70.9238 41.8738 70.9232 41.8746 70.9229 41.8753L63.4233 53.1255C63.3709 53.2039 63.3267 53.2869 63.2916 53.3734C63.2783 53.4056 63.2676 53.4384 63.2569 53.4711C63.2538 53.481 63.2496 53.4906 63.2466 53.5005C63.2361 53.5352 63.2281 53.5703 63.2204 53.6051C63.2183 53.6143 63.2157 53.6233 63.2138 53.6325C63.2076 53.664 63.2035 53.6957 63.1996 53.7274C63.1979 53.7409 63.1953 53.7544 63.1939 53.7681C63.1913 53.7941 63.1908 53.82 63.1898 53.8461C63.1889 53.8659 63.1872 53.8858 63.1872 53.9059C63.1872 53.9252 63.1889 53.9445 63.1896 53.9638C63.1906 53.9904 63.1913 54.0173 63.1939 54.0439C63.1953 54.0568 63.1977 54.0698 63.1994 54.0827C63.2035 54.1149 63.2076 54.1472 63.214 54.1792C63.2157 54.1881 63.2183 54.1967 63.2204 54.2055C63.2281 54.2408 63.2363 54.276 63.2468 54.3111C63.2498 54.321 63.2539 54.3306 63.2571 54.3407C63.2678 54.3733 63.2785 54.4061 63.2918 54.4384C63.3271 54.5246 63.3713 54.6079 63.4238 54.6864L70.9232 65.9349C70.9236 65.9355 70.924 65.9359 70.9244 65.9364C70.9546 65.9812 70.9875 66.024 71.0224 66.065C71.0339 66.0785 71.0461 66.0911 71.0579 66.1038C71.0817 66.1299 71.1064 66.155 71.1321 66.1792C71.1473 66.1935 71.1623 66.2074 71.1777 66.2207C71.205 66.2441 71.2334 66.266 71.2624 66.2874C71.2755 66.297 71.2881 66.3075 71.3014 66.3165C71.3436 66.3452 71.3873 66.3716 71.4325 66.3956C71.4439 66.4016 71.4557 66.4067 71.4672 66.4123C71.5032 66.4303 71.5399 66.447 71.5776 66.4618C71.5922 66.4676 71.6069 66.4728 71.6217 66.4781C71.6575 66.4908 71.6939 66.5021 71.731 66.512C71.7462 66.516 71.7612 66.5201 71.7765 66.5239C71.8146 66.5327 71.8532 66.5394 71.8924 66.545C71.9067 66.5471 71.9207 66.5499 71.935 66.5516C71.9834 66.557 72.0325 66.56 72.0824 66.5604C72.0863 66.5604 72.0902 66.5612 72.0944 66.5612C72.0951 66.5612 72.0961 66.561 72.097 66.561H87.564V76.4062C87.564 79.7666 84.8303 82.5003 81.4703 82.5003H8.90792C5.54793 82.5003 2.81418 79.7666 2.81418 76.4062C2.81418 76.3989 2.81324 76.3918 2.81306 76.3845V70.7793C2.81306 70.005 2.18306 69.3731 1.40681 69.3731C0.632436 69.3731 0.000562499 70.005 0.000562499 70.7793V76.4062C0.000562499 76.4208 0.00225 76.4351 0.00281249 76.4495C0.0262499 81.3406 4.01155 85.3128 8.90792 85.3128H81.4703C86.3807 85.3128 90.3758 81.3181 90.3765 76.4077C90.3765 76.4075 90.3765 76.4073 90.3765 76.407V66.561H91.782C94.1078 66.561 96 64.6687 96 62.343V39.8415C95.9994 37.5158 94.1072 35.6235 91.7815 35.6235ZM17.4187 3.15685L42.2322 10.2468C42.2334 10.2471 42.2347 10.2473 42.2358 10.2477L58.8663 14.9993H14.4588L17.4187 3.15685ZM87.5633 24.9177C85.969 23.4188 83.8255 22.4976 81.4697 22.4976C81.4673 22.4976 81.465 22.498 81.4624 22.498H8.90717C5.54699 22.498 2.81324 19.7643 2.81324 16.4041C2.81324 13.0439 5.54699 10.3101 8.90717 10.3101H12.7318L11.5599 14.9993H8.90755C8.13092 14.9993 7.5013 15.6289 7.5013 16.4056C7.5013 17.1822 8.13092 17.8118 8.90755 17.8118H12.653C12.6549 17.8118 12.657 17.8122 12.659 17.8122C12.6605 17.8122 12.662 17.8118 12.6634 17.8118H68.9022C68.9041 17.8118 68.9057 17.8122 68.9074 17.8122C68.9089 17.8122 68.9104 17.8118 68.9119 17.8118H79.593C80.3697 17.8118 80.9993 17.1822 80.9993 16.4056C80.9993 15.6289 80.3697 14.9993 79.593 14.9993H69.1037L52.6921 10.3101H81.4695C84.8295 10.3101 87.5633 13.0439 87.5633 16.4041V24.9177ZM93.1869 62.3422C93.1869 63.1172 92.5564 63.7477 91.7815 63.7477H72.8451L66.2828 53.9051L72.8451 44.061H91.7815C91.8011 44.061 91.8203 44.0588 91.8398 44.058C92.3115 44.0515 92.7645 43.9675 93.1869 43.8178V62.3422V62.3422ZM91.7815 41.247C91.7717 41.247 91.7621 41.2483 91.7524 41.2485H90.376V38.436H91.7815C92.5564 38.436 93.1869 39.0666 93.1869 39.8415C93.1869 40.6165 92.5564 41.247 91.7815 41.247Z" fill="white"/>
<path d="M77.7185 48.7487C74.8753 48.7487 72.5623 51.0619 72.5623 53.9051C72.5623 56.7484 74.8753 59.0614 77.7185 59.0614C80.5617 59.0614 82.8747 56.7484 82.8747 53.9051C82.8747 51.0619 80.5617 48.7487 77.7185 48.7487ZM77.7185 56.2489C76.4261 56.2489 75.3748 55.1976 75.3748 53.9051C75.3748 52.6127 76.4261 51.5612 77.7185 51.5612C79.0109 51.5612 80.0622 52.6127 80.0622 53.9051C80.0622 55.1976 79.0109 56.2489 77.7185 56.2489Z" fill="white"/>
</svg>
