<svg xmlns="http://www.w3.org/2000/svg" xmlns:xlink="http://www.w3.org/1999/xlink" viewBox="0 0 288.4 289.2" overflow="scroll"><style>.st0,.st1{clip-path:url(#SVGID_2_)}.st0{fill-rule:evenodd;clip-rule:evenodd;fill:#fff}.st1{fill:none;stroke:#d24a43;stroke-miterlimit:10}</style><defs><path id="SVGID_1_" d="M0 0h288.4v289.2H0z"/></defs><clipPath id="SVGID_2_"><use xlink:href="#SVGID_1_" overflow="visible"/></clipPath><path class="st0" d="M241.3 38.3c58.5 53.6 62.5 144.5 8.8 203-46.1 50.4-119.9 60.3-176.9 27.9l-11.3 3.6-50 15.7 11.3-51.2 2.6-11.6C-11.4 171.8-7.9 97.5 38.3 47.1c53.6-58.5 144.5-62.5 203-8.8m25.8 113.2c0-.3 0-.5.1-.8v-1.1c0-.7.1-1.3.1-2v-6c0-.6 0-1.2-.1-1.7v-1.2c0-.7-.1-1.4-.1-2.1v-.7c-.1-.9-.1-1.7-.2-2.6v-.3C261.2 70.2 208.3 21 144 21 75.9 21 20.6 76.3 20.6 144.4c0 27.8 9.2 53.4 24.7 74l-.1.5-3 13.4-1 4.3-5.9 26.4 25.9-8.1 8.6-2.7 9.3-2.9c18.8 11.6 41 18.4 64.8 18.4 65.7-.1 119.5-51.5 123.2-116.2"/><path class="st1" d="M241.3 38.3c58.5 53.6 62.5 144.5 8.8 203-46.1 50.4-119.9 60.3-176.9 27.9l-11.3 3.6-50 15.7 11.3-51.2 2.6-11.6C-11.4 171.8-7.9 97.5 38.3 47.1c53.6-58.5 144.5-62.5 203-8.8zm25.8 113.2c0-.3 0-.5.1-.8v-1.1c0-.7.1-1.3.1-2v-6c0-.6 0-1.2-.1-1.7v-1.2c0-.7-.1-1.4-.1-2.1v-.7c-.1-.9-.1-1.7-.2-2.6v-.3C261.2 70.2 208.3 21 144 21 75.9 21 20.6 76.3 20.6 144.4c0 27.8 9.2 53.4 24.7 74l-.1.5-3 13.4-1 4.3-5.9 26.4 25.9-8.1 8.6-2.7 9.3-2.9c18.8 11.6 41 18.4 64.8 18.4 65.7-.1 119.5-51.5 123.2-116.2z"/><path class="st0" d="M84.2 85.1c-6.5 7.5-8.8 17-7.9 27.4-3.8 41.7 59.2 107.2 100.3 103.2 13 1.1 24.7-3 32.9-14.8 3.7-7.6 2.9-12.1 1.7-14.4-3.4-6.7-25.7-14.1-33-17-4.3-1.8-14 4.7-16.7 8.2-2.7 3.6-7.3 1.1-7.3 1.1-10.5-5.2-38.2-35.8-42.4-46.8 0 0-2-4.9 1.8-7.2s11.1-11.4 9.8-15.8c-1.3-4.5-12-32.8-12-32.8s-3.6-6.1-16.3-1.4c.1.1-5.5 3.3-10.9 10.3"/><path class="st1" d="M84.2 85.1c-6.5 7.5-8.8 17-7.9 27.4-3.8 41.7 59.2 107.2 100.3 103.2 13 1.1 24.7-3 32.9-14.8 3.7-7.6 2.9-12.1 1.7-14.4-3.4-6.7-25.7-14.1-33-17-4.3-1.8-14 4.7-16.7 8.2-2.7 3.6-7.3 1.1-7.3 1.1-10.5-5.2-38.2-35.8-42.4-46.8 0 0-2-4.9 1.8-7.2s11.1-11.4 9.8-15.8c-1.3-4.5-12-32.8-12-32.8s-3.6-6.1-16.3-1.4c.1.1-5.5 3.3-10.9 10.3z"/></svg>