<svg xmlns="http://www.w3.org/2000/svg" viewBox="0 0 93.6 93.6"><path d="M92.6 46.8C92.6 21.5 72.1 1 46.8 1S1 21.5 1 46.8s20.5 45.8 45.8 45.8 45.8-20.5 45.8-45.8z" fill="none" stroke="#d24a43" stroke-width="2" stroke-miterlimit="10"/><path d="M26.3 26.4c-2.2 2.6-3 5.8-2.7 9.4-1.3 14.3 20.2 36.7 34.3 35.3 4.5.4 8.4-1 11.3-5.1 1.3-2.6 1-4.1.6-4.9-1.2-2.3-8.8-4.8-11.3-5.8-1.5-.6-4.8 1.6-5.7 2.8-.9 1.2-2.5.4-2.5.4-3.6-1.8-13.1-12.3-14.5-16 0 0-.7-1.7.6-2.5 1.3-.8 3.8-3.9 3.4-5.4-.5-1.5-4.1-11.2-4.1-11.2s-1.3-2.1-5.7-.4c0 0-1.9 1.1-3.7 3.4" clip-path="url(#SVGID_2_)" fill-rule="evenodd" clip-rule="evenodd" fill="#fff"/></svg>